<svg data-v-1084b650="" xmlns="http://www.w3.org/2000/svg" viewBox="0 0 300 300"><!----> <!----> <rect data-v-1084b650="" fill="#ECE0E8" x="0" y="0" width="300px" height="300px" class="logo-background-square"></rect> <!----> <g data-v-1084b650="" id="b60ffd06-45f5-2916-135d-12d06b90dca5" fill="#230A1B" transform="matrix(3.0999999999999996,0,0,3.0999999999999996,28.449000585079204,167.41425445079804)"><path d="M7.50 15.05L7.50 15.05Q7.98 15.05 8.39 14.92L8.39 14.92L8.39 14.92Q8.81 14.78 9.06 14.53L9.06 14.53L9.31 15.18L9.31 15.18Q9.02 15.44 8.52 15.60L8.52 15.60L8.52 15.60Q8.02 15.75 7.49 15.75L7.49 15.75L7.49 15.75Q6.38 15.75 5.66 15.11L5.66 15.11L5.66 15.11Q4.93 14.46 4.84 13.15L4.84 13.15L4.84 13.15Q3.63 13.09 2.73 12.49L2.73 12.49L2.73 12.49Q1.83 11.90 1.35 10.85L1.35 10.85L1.35 10.85Q0.87 9.80 0.87 8.40L0.87 8.40L0.87 8.40Q0.87 6.94 1.39 5.87L1.39 5.87L1.39 5.87Q1.90 4.80 2.86 4.22L2.86 4.22L2.86 4.22Q3.82 3.64 5.12 3.64L5.12 3.64L5.12 3.64Q6.43 3.64 7.38 4.22L7.38 4.22L7.38 4.22Q8.34 4.80 8.86 5.87L8.86 5.87L8.86 5.87Q9.38 6.94 9.38 8.40L9.38 8.40L9.38 8.40Q9.38 9.79 8.90 10.83L8.90 10.83L8.90 10.83Q8.43 11.87 7.55 12.47L7.55 12.47L7.55 12.47Q6.68 13.08 5.47 13.15L5.47 13.15L5.47 13.15Q5.63 15.05 7.50 15.05L7.50 15.05ZM1.61 8.40L1.61 8.40Q1.61 9.66 2.04 10.59L2.04 10.59L2.04 10.59Q2.46 11.52 3.25 12.02L3.25 12.02L3.25 12.02Q4.05 12.52 5.12 12.52L5.12 12.52L5.12 12.52Q6.20 12.52 7 12.02L7 12.02L7 12.02Q7.80 11.52 8.22 10.59L8.22 10.59L8.22 10.59Q8.65 9.66 8.65 8.40L8.65 8.40L8.65 8.40Q8.65 7.14 8.22 6.21L8.22 6.21L8.22 6.21Q7.80 5.28 7 4.78L7 4.78L7 4.78Q6.20 4.28 5.12 4.28L5.12 4.28L5.12 4.28Q4.05 4.28 3.25 4.78L3.25 4.78L3.25 4.78Q2.46 5.28 2.04 6.21L2.04 6.21L2.04 6.21Q1.61 7.14 1.61 8.40L1.61 8.40ZM16.60 6.02L17.30 6.02L17.30 13.02L16.67 13.02L16.65 11.63L16.65 11.63Q16.30 12.38 15.60 12.77L15.60 12.77L15.60 12.77Q14.90 13.16 13.94 13.16L13.94 13.16L13.94 13.16Q12.80 13.16 12.11 12.52L12.11 12.52L12.11 12.52Q11.42 11.89 11.42 10.64L11.42 10.64L11.42 6.02L12.12 6.02L12.12 10.47L12.12 10.47Q12.12 12.54 14.06 12.54L14.06 12.54L14.06 12.54Q14.83 12.54 15.41 12.21L15.41 12.21L15.41 12.21Q15.99 11.87 16.30 11.30L16.30 11.30L16.30 11.30Q16.60 10.72 16.60 10.04L16.60 10.04L16.60 6.02ZM20.15 4.66L20.15 4.66Q19.88 4.66 19.72 4.50L19.72 4.50L19.72 4.50Q19.56 4.34 19.56 4.07L19.56 4.07L19.56 4.07Q19.56 3.81 19.72 3.65L19.72 3.65L19.72 3.65Q19.88 3.49 20.15 3.49L20.15 3.49L20.15 3.49Q20.41 3.49 20.57 3.65L20.57 3.65L20.57 3.65Q20.73 3.81 20.73 4.07L20.73 4.07L20.73 4.07Q20.73 4.34 20.57 4.50L20.57 4.50L20.57 4.50Q20.41 4.66 20.15 4.66L20.15 4.66ZM20.50 6.02L20.50 13.02L19.80 13.02L19.80 6.02L20.50 6.02ZM25.86 5.88L25.86 5.88Q26.91 5.88 27.64 6.38L27.64 6.38L27.64 6.38Q28.38 6.87 28.70 7.77L28.70 7.77L28.04 8.08L28.04 8.08Q27.80 7.31 27.24 6.90L27.24 6.90L27.24 6.90Q26.68 6.50 25.84 6.50L25.84 6.50L25.84 6.50Q24.63 6.50 23.94 7.30L23.94 7.30L23.94 7.30Q23.25 8.11 23.25 9.52L23.25 9.52L23.25 9.52Q23.25 10.95 23.93 11.75L23.93 11.75L23.93 11.75Q24.61 12.54 25.83 12.54L25.83 12.54L25.83 12.54Q26.73 12.54 27.35 12.10L27.35 12.10L27.35 12.10Q27.97 11.66 28.11 10.88L28.11 10.88L28.76 11.10L28.76 11.10Q28.48 12.05 27.70 12.61L27.70 12.61L27.70 12.61Q26.92 13.16 25.84 13.16L25.84 13.16L25.84 13.16Q24.29 13.16 23.42 12.19L23.42 12.19L23.42 12.19Q22.55 11.23 22.55 9.52L22.55 9.52L22.55 9.52Q22.55 7.81 23.43 6.85L23.43 6.85L23.43 6.85Q24.30 5.88 25.86 5.88L25.86 5.88ZM35.66 13.02L32.98 9.31L31.33 10.91L31.33 13.02L30.63 13.02L30.63 2.80L31.33 2.80L31.33 10.02L35.49 6.02L36.40 6.02L33.50 8.82L36.51 13.02L35.66 13.02ZM49.29 13.02L48.47 13.02L45.82 9.02L45.78 9.02L43.05 9.02L43.05 13.02L42.35 13.02L42.35 3.78L45.78 3.78L45.78 3.78Q47.17 3.78 47.98 4.48L47.98 4.48L47.98 4.48Q48.80 5.18 48.80 6.40L48.80 6.40L48.80 6.40Q48.80 7.41 48.22 8.07L48.22 8.07L48.22 8.07Q47.63 8.74 46.61 8.93L46.61 8.93L49.29 13.02ZM43.05 4.42L43.05 8.36L45.77 8.36L45.77 8.36Q46.89 8.36 47.48 7.85L47.48 7.85L47.48 7.85Q48.08 7.35 48.08 6.40L48.08 6.40L48.08 6.40Q48.08 5.45 47.48 4.93L47.48 4.93L47.48 4.93Q46.89 4.42 45.77 4.42L45.77 4.42L43.05 4.42ZM56.70 9.35L56.70 9.35Q56.70 9.59 56.67 9.81L56.67 9.81L51.11 9.81L51.11 9.81Q51.18 11.10 51.88 11.82L51.88 11.82L51.88 11.82Q52.57 12.54 53.73 12.54L53.73 12.54L53.73 12.54Q54.56 12.54 55.15 12.21L55.15 12.21L55.15 12.21Q55.75 11.87 56.01 11.26L56.01 11.26L56.60 11.56L56.60 11.56Q56.21 12.33 55.48 12.75L55.48 12.75L55.48 12.75Q54.75 13.16 53.73 13.16L53.73 13.16L53.73 13.16Q52.18 13.16 51.30 12.19L51.30 12.19L51.30 12.19Q50.43 11.23 50.43 9.52L50.43 9.52L50.43 9.52Q50.43 7.81 51.27 6.85L51.27 6.85L51.27 6.85Q52.12 5.88 53.65 5.88L53.65 5.88L53.65 5.88Q55.08 5.88 55.89 6.83L55.89 6.83L55.89 6.83Q56.70 7.78 56.70 9.35L56.70 9.35ZM53.65 6.50L53.65 6.50Q52.51 6.50 51.86 7.20L51.86 7.20L51.86 7.20Q51.20 7.91 51.11 9.18L51.11 9.18L56.04 9.18L56.04 9.18Q55.97 7.92 55.35 7.21L55.35 7.21L55.35 7.21Q54.73 6.50 53.65 6.50L53.65 6.50ZM64.33 12.56L64.33 12.56Q64.68 12.56 64.88 12.46L64.88 12.46L64.83 13.02L64.83 13.02Q64.58 13.16 64.15 13.16L64.15 13.16L64.15 13.16Q63.66 13.16 63.35 12.89L63.35 12.89L63.35 12.89Q63.04 12.63 63 11.97L63 11.97L63 11.97Q62.68 12.53 61.96 12.84L61.96 12.84L61.96 12.84Q61.25 13.16 60.47 13.16L60.47 13.16L60.47 13.16Q59.43 13.16 58.81 12.70L58.81 12.70L58.81 12.70Q58.18 12.24 58.18 11.38L58.18 11.38L58.18 11.38Q58.18 9.76 60.84 9.28L60.84 9.28L62.99 8.90L62.99 8.29L62.99 8.29Q62.99 7.45 62.49 6.97L62.49 6.97L62.49 6.97Q61.99 6.50 61.08 6.50L61.08 6.50L61.08 6.50Q59.42 6.50 58.84 7.98L58.84 7.98L58.31 7.59L58.31 7.59Q58.62 6.76 59.33 6.32L59.33 6.32L59.33 6.32Q60.05 5.88 61.08 5.88L61.08 5.88L61.08 5.88Q62.30 5.88 62.99 6.47L62.99 6.47L62.99 6.47Q63.69 7.07 63.69 8.20L63.69 8.20L63.69 11.82L63.69 11.82Q63.69 12.56 64.33 12.56L64.33 12.56ZM60.54 12.54L60.54 12.54Q61.12 12.54 61.68 12.34L61.68 12.34L61.68 12.34Q62.24 12.14 62.61 11.74L62.61 11.74L62.61 11.74Q62.99 11.34 62.99 10.78L62.99 10.78L62.99 9.48L61.07 9.83L61.07 9.83Q59.93 10.04 59.42 10.42L59.42 10.42L59.42 10.42Q58.90 10.79 58.90 11.38L58.90 11.38L58.90 11.38Q58.90 11.94 59.33 12.24L59.33 12.24L59.33 12.24Q59.77 12.54 60.54 12.54L60.54 12.54ZM71.33 13.02L68.66 9.31L67.00 10.91L67.00 13.02L66.30 13.02L66.30 2.80L67.00 2.80L67.00 10.02L71.16 6.02L72.07 6.02L69.17 8.82L72.18 13.02L71.33 13.02ZM77.29 12.00L77.55 12.57L77.55 12.57Q77.27 12.85 76.86 13.01L76.86 13.01L76.86 13.01Q76.45 13.16 75.96 13.16L75.96 13.16L75.96 13.16Q75.11 13.16 74.63 12.69L74.63 12.69L74.63 12.69Q74.14 12.22 74.14 11.27L74.14 11.27L74.14 6.62L72.74 6.62L72.74 6.02L74.14 6.02L74.14 4.27L74.84 4.07L74.84 6.02L77.48 6.02L77.48 6.62L74.84 6.62L74.84 11.17L74.84 11.17Q74.84 11.83 75.16 12.17L75.16 12.17L75.16 12.17Q75.47 12.52 76.08 12.52L76.08 12.52L76.08 12.52Q76.78 12.52 77.29 12.00L77.29 12.00Z"></path></g> <linearGradient data-v-1084b650="" gradientTransform="rotate(25)" id="80adfe50-4cfc-4df0-dcb8-5ac036fc9262" x1="0%" y1="0%" x2="100%" y2="0%"><stop data-v-1084b650="" offset="0%" style="stop-color: rgb(30, 11, 54); stop-opacity: 1;"></stop> <stop data-v-1084b650="" offset="100%" style="stop-color: rgb(202, 55, 130); stop-opacity: 1;"></stop></linearGradient> <g data-v-1084b650="" id="e9c5008e-120c-d628-ebab-19fa0ebec4ca" fill="url(#80adfe50-4cfc-4df0-dcb8-5ac036fc9262)" stroke="none" transform="matrix(0.49560803374390006,0,0,0.49560803374390006,75.65879493841499,46.53895536018777)"><svg xmlns="http://www.w3.org/2000/svg" xmlns:xlink="http://www.w3.org/1999/xlink" version="1.1" x="0px" y="0px" viewBox="0 0 100 100" enable-background="new 0 0 100 100" xml:space="preserve"><path d="M86,31h-4v-2h-7v2h-4.5l-8-10h-10l-8,10H40v-4h-4v-1h-3v1h-4v4h-4v-2h-5v2h-6v9h28.251l-0.5,2H14v32h31.702  C41.029,70.438,38,64.829,38,58.5c0-8.624,5.604-15.927,13.364-18.5h-9.113l0.479-1.917h29.542L72.751,40h-9.115  C71.396,42.573,77,49.876,77,58.5c0,6.329-3.029,11.938-7.702,15.5H86V42H73.251l-0.5-2H86V31z M33.951,64.428l-0.045,0.145  C33.659,65.396,32.904,66,32,66c-1.104,0-2-0.896-2-2c0-0.334,0.09-0.645,0.235-0.922l0.001-0.002  c0.052-0.099,0.11-0.193,0.177-0.281l2.783-4.401c0.182-0.246,0.461-0.417,0.791-0.417c0.552,0,1,0.447,1,1  C34.986,59.025,33.955,64.409,33.951,64.428z"></path><g><path d="M57.5,47.5c-6.065,0-11,4.935-11,11c0,6.066,4.935,11.001,11,11.001c6.065-0.001,11-4.936,11-11.001S63.565,47.5,57.5,47.5   z M52.54,53.54c-1.091,1.09-2.354,1.596-2.822,1.128c-0.467-0.468,0.038-1.73,1.129-2.821c1.09-1.09,2.353-1.596,2.821-1.128   C54.136,51.186,53.63,52.449,52.54,53.54z M64,65c-0.553,0-1-0.447-1-1s0.447-1,1-1s1,0.447,1,1S64.553,65,64,65z"></path><path d="M68.394,70.86c0.046-0.041,0.091-0.083,0.137-0.124c0.802-0.725,1.531-1.524,2.18-2.392   c0.093-0.123,0.188-0.244,0.276-0.37c0.157-0.222,0.305-0.45,0.45-0.681c0.116-0.183,0.229-0.367,0.337-0.555   c0.123-0.212,0.244-0.423,0.357-0.641c0.13-0.248,0.248-0.502,0.365-0.757c0.08-0.175,0.167-0.345,0.24-0.521   c0.179-0.427,0.337-0.862,0.479-1.306c0.049-0.152,0.088-0.309,0.132-0.463c0.095-0.326,0.181-0.655,0.255-0.989   c0.039-0.174,0.073-0.349,0.105-0.524c0.064-0.34,0.116-0.684,0.158-1.031c0.02-0.158,0.042-0.315,0.058-0.476   C73.97,59.526,74,59.017,74,58.5s-0.03-1.026-0.077-1.531c-0.016-0.16-0.038-0.317-0.058-0.477   c-0.042-0.347-0.094-0.689-0.157-1.029c-0.033-0.177-0.067-0.352-0.106-0.525c-0.074-0.335-0.16-0.663-0.255-0.989   c-0.044-0.154-0.083-0.311-0.132-0.463c-0.142-0.443-0.301-0.88-0.479-1.306c-0.073-0.177-0.16-0.346-0.239-0.52   c-0.117-0.256-0.236-0.511-0.366-0.76c-0.113-0.217-0.234-0.428-0.356-0.639c-0.109-0.188-0.223-0.374-0.339-0.558   c-0.146-0.229-0.292-0.457-0.448-0.678c-0.09-0.128-0.187-0.25-0.28-0.375c-0.646-0.865-1.373-1.662-2.173-2.384   c-0.048-0.043-0.095-0.087-0.143-0.13c-0.285-0.251-0.578-0.491-0.879-0.722c-0.027-0.021-0.056-0.041-0.083-0.062   C64.663,43.259,61.229,42,57.5,42c-3.731,0-7.167,1.26-9.934,3.357c-0.025,0.019-0.051,0.038-0.076,0.057   c-0.303,0.232-0.598,0.474-0.884,0.726c-0.046,0.041-0.091,0.083-0.137,0.125c-0.803,0.724-1.532,1.524-2.181,2.392   c-0.092,0.123-0.187,0.243-0.275,0.369c-0.157,0.223-0.305,0.451-0.451,0.682c-0.116,0.182-0.228,0.366-0.336,0.553   c-0.123,0.212-0.245,0.424-0.358,0.643c-0.129,0.248-0.247,0.5-0.364,0.755c-0.08,0.175-0.167,0.345-0.241,0.522   c-0.178,0.426-0.336,0.862-0.478,1.305c-0.049,0.153-0.088,0.311-0.133,0.466c-0.094,0.325-0.18,0.653-0.254,0.986   c-0.039,0.175-0.073,0.35-0.105,0.526c-0.064,0.34-0.115,0.683-0.158,1.029c-0.02,0.159-0.042,0.316-0.057,0.477   C41.031,57.474,41,57.983,41,58.5s0.031,1.026,0.078,1.531c0.015,0.16,0.038,0.317,0.057,0.476   c0.042,0.348,0.094,0.691,0.158,1.031c0.033,0.176,0.067,0.351,0.105,0.524c0.074,0.335,0.161,0.664,0.255,0.991   c0.044,0.153,0.083,0.309,0.131,0.46c0.142,0.444,0.301,0.881,0.479,1.308c0.073,0.175,0.159,0.342,0.237,0.514   c0.118,0.258,0.238,0.516,0.37,0.766c0.112,0.216,0.232,0.426,0.354,0.635c0.11,0.19,0.225,0.378,0.342,0.563   c0.145,0.228,0.29,0.453,0.445,0.673c0.092,0.131,0.191,0.256,0.287,0.384c0.644,0.86,1.368,1.654,2.164,2.373   c0.049,0.045,0.098,0.091,0.148,0.135c0.284,0.25,0.575,0.489,0.875,0.72c0.029,0.022,0.058,0.043,0.087,0.065   c1.306,0.988,2.759,1.783,4.326,2.352l0,0l0,0c1.752,0.636,3.633,1,5.602,1c3.732,0,7.167-1.26,9.935-3.357   c0.024-0.019,0.05-0.037,0.075-0.056C67.813,71.354,68.107,71.112,68.394,70.86z M57.5,71.5c-7.18,0-13-5.82-13-13   c0-3.975,1.788-7.526,4.599-9.911c2.267-1.923,5.196-3.089,8.401-3.089c7.18,0,13,5.82,13,13c0,4.42-2.211,8.319-5.582,10.668   C62.813,70.635,60.26,71.5,57.5,71.5z"></path></g></svg></g></svg>